<!DOCTYPE svg PUBLIC "-//W3C//DTD SVG 1.1//EN" "http://www.w3.org/Graphics/SVG/1.1/DTD/svg11.dtd">

<!-- Uploaded to: SVG Repo, www.svgrepo.com, Transformed by: SVG Repo Mixer Tools -->
<svg fill="#FFFFFF" height="50px" width="50px" version="1.1" id="Layer_1" xmlns="http://www.w3.org/2000/svg" xmlns:xlink="http://www.w3.org/1999/xlink" viewBox="0 0 491.52 491.52" xml:space="preserve" stroke="#FFFFFF">

<g id="SVGRepo_bgCarrier" stroke-width="0"/>

<g id="SVGRepo_tracerCarrier" stroke-linecap="round" stroke-linejoin="round"/>

<g id="SVGRepo_iconCarrier"> <g> <g> <path d="M491.52,419.84V0H0v419.84h153.6v51.2h-40.96v20.48h266.24v-20.48h-40.96v-51.2H491.52z M20.48,20.48h450.56v20.48H20.48 V20.48z M20.48,61.44h450.56V204.8H20.48V61.44z M20.48,225.28h450.56v122.88H20.48V225.28z M317.44,471.04H174.08v-51.2h143.36 V471.04z M20.48,399.36v-30.72h450.56v30.72H20.48z"/> </g> </g> <g> <g> <polygon points="396.36,84.92 381.88,99.4 415.6,133.12 381.88,166.84 396.36,181.32 444.56,133.12 "/> </g> </g> <g> <g> <polygon points="109.64,99.4 95.16,84.92 46.96,133.12 95.16,181.32 109.64,166.84 75.92,133.12 "/> </g> </g> <g> <g> <path d="M40.96,245.76v81.92h122.88v-81.92H40.96z M143.36,307.2H61.44v-40.96h81.92V307.2z"/> </g> </g> <g> <g> <path d="M184.32,245.76v81.92H307.2v-81.92H184.32z M286.72,307.2H204.8v-40.96h81.92V307.2z"/> </g> </g> <g> <g> <path d="M327.68,245.76v81.92h122.88v-81.92H327.68z M430.08,307.2h-81.92v-40.96h81.92V307.2z"/> </g> </g> </g>

</svg>